<svg width="295" height="47" viewBox="0 0 295 47" fill="none" xmlns="http://www.w3.org/2000/svg">
<path d="M15.6282 34.988C13.3201 34.988 11.2042 34.6827 9.28077 34.0723C7.3573 33.4297 5.70631 32.4177 4.32782 31.0361C2.98139 29.6546 1.92348 27.8715 1.15409 25.6867C0.384695 23.502 0 20.8353 0 17.6868V16.7711C0 13.8153 0.400724 11.2771 1.20217 9.15663C2.00362 7.03615 3.10962 5.3012 4.52017 3.95181C5.93072 2.60241 7.5817 1.60643 9.47312 0.963857C11.3966 0.321286 13.4483 0 15.6282 0C17.5838 0 19.4111 0.2249 21.1102 0.674699C22.8413 1.1245 24.348 1.83133 25.6303 2.79518C26.9447 3.75904 28.0026 5.01205 28.8041 6.55422C29.6376 8.09639 30.1345 9.97591 30.2947 12.1928H21.3506C21.1903 11.2932 20.9338 10.5382 20.5812 9.92771C20.2286 9.28514 19.7958 8.77109 19.2828 8.38554C18.7699 7.96787 18.1929 7.67872 17.5517 7.51807C16.9426 7.3253 16.3015 7.22892 15.6282 7.22892C14.6665 7.22892 13.7689 7.40562 12.9354 7.75904C12.1339 8.08032 11.4287 8.62651 10.8196 9.39759C10.2425 10.1365 9.77767 11.1165 9.42503 12.3374C9.10445 13.5582 8.94416 15.0361 8.94416 16.7711V17.7831C8.94416 19.6466 9.12048 21.2209 9.47312 22.506C9.85781 23.759 10.3547 24.7871 10.9638 25.5904C11.5729 26.3614 12.2782 26.9237 13.0796 27.2771C13.8811 27.5984 14.7306 27.759 15.6282 27.759C17.2632 27.759 18.5615 27.3735 19.5233 26.6024C20.5171 25.7992 21.1262 24.5301 21.3506 22.7952H30.2947C30.1665 25.0442 29.7017 26.9398 28.9002 28.4819C28.1308 30.0241 27.089 31.2771 25.7746 32.241C24.4923 33.2048 22.9855 33.9116 21.2544 34.3614C19.5233 34.7791 17.6479 34.988 15.6282 34.988Z" fill="#D41216"/>
<path d="M46.6424 34.988C44.7831 34.988 43.0359 34.7309 41.4009 34.2169C39.798 33.6707 38.4035 32.8514 37.2174 31.759C36.0312 30.6667 35.1016 29.3012 34.4283 27.6627C33.7551 25.992 33.4185 24.0482 33.4185 21.8313V20.8675C33.4185 18.747 33.7391 16.8996 34.3803 15.3253C35.0535 13.751 35.9511 12.4337 37.0731 11.3735C38.2272 10.3133 39.5736 9.5261 41.1124 9.01205C42.6833 8.46587 44.3663 8.19277 46.1615 8.19277C50.3611 8.19277 53.5349 9.28514 55.6828 11.4699C57.8306 13.6225 58.9046 16.755 58.9046 20.8675V23.5181H41.0163C41.0483 24.5141 41.2246 25.3655 41.5452 26.0723C41.8658 26.747 42.2825 27.3092 42.7955 27.759C43.3084 28.2088 43.8854 28.5462 44.5266 28.7711C45.1998 28.9639 45.9051 29.0602 46.6424 29.0602C48.053 29.0602 49.159 28.8514 49.9604 28.4337C50.7939 27.9839 51.3389 27.3896 51.5954 26.6506H58.4237C57.9108 29.4458 56.6445 31.5341 54.6248 32.9157C52.6052 34.2972 49.9444 34.988 46.6424 34.988ZM46.402 14.0723C45.7288 14.0723 45.0716 14.1526 44.4304 14.3133C43.8213 14.4739 43.2603 14.747 42.7474 15.1325C42.2665 15.4859 41.8658 15.9518 41.5452 16.5301C41.2567 17.1084 41.0964 17.8153 41.0643 18.6506H51.6435C51.6435 17.751 51.4992 17.012 51.2107 16.4337C50.9222 15.8554 50.5375 15.3896 50.0566 15.0361C49.6078 14.6827 49.0628 14.4418 48.4216 14.3133C47.7805 14.1526 47.1073 14.0723 46.402 14.0723Z" fill="#D41216"/>
<path d="M62.744 8.81928H71.7363L77.7952 21.494L83.8542 8.81928H92.5579V34.3614H85.5372V18.6988L80.0553 29.5422H75.2466L69.7647 18.6988V34.3614H62.744V8.81928Z" fill="#D41216"/>
<path d="M97.8343 8.81928H105.24V17.1084H110.337C113.671 17.1084 116.187 17.8153 117.887 19.2289C119.586 20.6426 120.435 22.8112 120.435 25.7349C120.435 27.0201 120.243 28.1928 119.858 29.253C119.505 30.3133 118.912 31.2289 118.079 32C117.277 32.739 116.236 33.3173 114.953 33.7349C113.703 34.1526 112.164 34.3614 110.337 34.3614H97.8343V8.81928ZM109.375 28.7711C110.69 28.7711 111.619 28.5301 112.164 28.0482C112.741 27.5341 113.03 26.7631 113.03 25.7349C113.03 24.6747 112.741 23.9036 112.164 23.4217C111.619 22.9398 110.69 22.6988 109.375 22.6988H105.24V28.7711H109.375Z" fill="#D41216"/>
<path d="M129.081 24.9157C127.158 24.2731 125.747 23.3253 124.85 22.0723C123.984 20.7872 123.551 19.3092 123.551 17.6386C123.551 16.3855 123.76 15.2289 124.177 14.1687C124.625 13.0763 125.299 12.1446 126.196 11.3735C127.094 10.5703 128.232 9.94378 129.61 9.49398C131.021 9.04418 132.688 8.81928 134.611 8.81928H147.114V34.3614H139.709V25.7349H136.054L130.668 34.3614H122.59L129.081 24.9157ZM130.957 17.6386C130.957 18.5382 131.277 19.1968 131.919 19.6145C132.592 20.0321 133.409 20.241 134.371 20.241H139.709V14.8916H134.371C133.409 14.8916 132.592 15.1165 131.919 15.5663C131.277 16.0161 130.957 16.7068 130.957 17.6386Z" fill="#D41216"/>
<path d="M163.943 8.81928H171.156V24.241L181.975 8.81928H188.467V34.3614H181.254V18.9398L170.434 34.3614H163.943V8.81928Z" fill="#D41216"/>
<path d="M205.314 8.81928H214.306L220.365 21.494L226.424 8.81928H235.128V34.3614H228.107V18.6988L222.625 29.5422H217.817L212.335 18.6988V34.3614H205.314V8.81928Z" fill="#D41216"/>
<path d="M239.924 8.81928H247.137V24.241L257.956 8.81928H264.448V34.3614H257.235V18.9398L246.415 34.3614H239.924V8.81928Z" fill="#D41216"/>
<path d="M269.273 8.81928H276.102V12.2892C276.422 11.7751 276.823 11.2771 277.304 10.7952C277.817 10.2811 278.41 9.83133 279.083 9.44579C279.756 9.06024 280.51 8.75502 281.343 8.53012C282.177 8.30522 283.074 8.19277 284.036 8.19277C287.627 8.19277 290.352 9.25301 292.211 11.3735C294.07 13.494 295 16.6586 295 20.8675V21.8313C295 24.0161 294.744 25.9277 294.231 27.5663C293.718 29.2048 292.98 30.5703 292.019 31.6627C291.057 32.755 289.903 33.5904 288.556 34.1687C287.21 34.7149 285.703 34.988 284.036 34.988C282.594 34.988 281.215 34.6667 279.901 34.0241C278.618 33.3494 277.544 32.3855 276.679 31.1325V44H269.273V8.81928ZM282.257 28.8675C283.732 28.8675 284.95 28.2731 285.912 27.0843C286.905 25.8956 287.402 24.1446 287.402 21.8313V20.8675C287.402 18.6506 286.921 17.012 285.96 15.9518C285.03 14.8594 283.796 14.3133 282.257 14.3133C280.686 14.3133 279.356 14.8112 278.266 15.8072C277.208 16.7711 276.679 18.2169 276.679 20.1446V22.5542C276.679 24.5783 277.208 26.1365 278.266 27.2289C279.356 28.3213 280.686 28.8675 282.257 28.8675Z" fill="#D41216"/>
<path d="M4 41.0785H4.95751L6.67949 44.0392L8.40147 41.0785H9.32809V46.0725H8.40147V42.5767L6.97292 45.0381H6.35517L4.92662 42.5767V46.0725H4V41.0785Z" fill="black"/>
<path d="M16.5103 41.0785H20.1396V41.8205H17.437V43.1332H19.908V43.8751H17.437V45.3306H20.1396V46.0725H16.5103V41.0785Z" fill="black"/>
<path d="M28.4811 43.4756L26.6278 41.0785H27.6316L29.2146 43.1688H29.6779V41.0785H30.6046V43.1688H31.0679L32.6818 41.0785H33.6547L31.8015 43.4471L33.7319 46.0725H32.6818L31.0679 43.8395H30.6046V46.0725H29.6779V43.8395H29.2146L27.5853 46.0725H26.5506L28.4811 43.4756Z" fill="black"/>
<path d="M40.0252 45.3306H40.6044C40.7022 45.1546 40.7794 44.9429 40.836 44.6956C40.8978 44.4435 40.9442 44.1748 40.975 43.8894C41.0111 43.604 41.0342 43.3115 41.0445 43.0119C41.06 42.7122 41.0677 42.4245 41.0677 42.1486V41.0785H44.7279V45.3306H45.3533V47H44.5039V46.0725H40.8747V47H40.0252V45.3306ZM43.8012 45.3306V41.8205H41.9634V42.2913C41.9634 42.9762 41.9274 43.5636 41.8553 44.0535C41.7833 44.5434 41.6803 44.9691 41.5465 45.3306H43.8012Z" fill="black"/>
<path d="M52.8858 46.151C52.8292 46.151 52.7725 46.1486 52.7159 46.1439C52.6644 46.1439 52.6181 46.1415 52.5769 46.1367V45.3734C52.6181 45.3781 52.6644 45.3829 52.7159 45.3876C52.7725 45.3924 52.8292 45.3948 52.8858 45.3948C52.9887 45.3948 53.0788 45.3876 53.1561 45.3734C53.2333 45.3591 53.3002 45.3329 53.3568 45.2949C53.4134 45.2568 53.4649 45.2045 53.5113 45.1379C53.5576 45.0713 53.6013 44.9881 53.6425 44.8882L51.4186 41.0785H52.4997L54.129 43.9679L55.4803 41.0785H56.4379L54.5383 45.0166C54.4405 45.2164 54.3401 45.39 54.2371 45.5375C54.1393 45.6801 54.0261 45.7967 53.8974 45.887C53.7738 45.9774 53.6297 46.044 53.4649 46.0868C53.3002 46.1296 53.1071 46.151 52.8858 46.151Z" fill="black"/>
<path d="M63.0376 41.0785H63.9643V43.1332H66.5897V41.0785H67.5163V46.0725H66.5897V43.8751H63.9643V46.0725H63.0376V41.0785Z" fill="black"/>
<path d="M77.6919 44.9453H75.4989L75.0433 46.0725H74.1167L76.163 41.0785H77.0896L79.1359 46.0725H78.1475L77.6919 44.9453ZM75.8001 44.2033H77.3908L76.6032 42.1486L75.8001 44.2033Z" fill="black"/>
<path d="M85.7357 41.0785H87.7048C88.4307 41.0785 88.966 41.2235 89.311 41.5137C89.6559 41.799 89.8283 42.1843 89.8283 42.6694C89.8283 43.1546 89.6559 43.5422 89.311 43.8323C88.966 44.1177 88.4307 44.2604 87.7048 44.2604H86.6623V46.0725H85.7357V41.0785ZM87.6276 43.5184C87.8695 43.5184 88.0729 43.5018 88.2376 43.4685C88.4023 43.4304 88.5336 43.3781 88.6314 43.3115C88.7292 43.2402 88.7987 43.1522 88.8399 43.0476C88.8811 42.9382 88.9017 42.8121 88.9017 42.6694C88.9017 42.5268 88.8811 42.4031 88.8399 42.2985C88.7987 42.1938 88.7292 42.1058 88.6314 42.0345C88.5336 41.9631 88.4023 41.9108 88.2376 41.8775C88.0729 41.8395 87.8695 41.8205 87.6276 41.8205H86.6623V43.5184H87.6276Z" fill="black"/>
<path d="M98.8255 46.151C98.496 46.151 98.182 46.1034 97.8834 46.0083C97.5849 45.9132 97.3223 45.7658 97.0958 45.566C96.8693 45.3615 96.6891 45.0999 96.5553 44.7812C96.4214 44.4578 96.3545 44.0678 96.3545 43.6112V43.4685C96.3545 43.0309 96.4214 42.6576 96.5553 42.3484C96.6891 42.0345 96.8693 41.7776 97.0958 41.5779C97.3223 41.3781 97.5849 41.2331 97.8834 41.1427C98.182 41.0476 98.496 41 98.8255 41C99.155 41 99.469 41.0476 99.7676 41.1427C100.066 41.2331 100.329 41.3781 100.555 41.5779C100.782 41.7776 100.962 42.0345 101.096 42.3484C101.23 42.6576 101.297 43.0309 101.297 43.4685V43.6112C101.297 44.0678 101.23 44.4578 101.096 44.7812C100.962 45.0999 100.782 45.3615 100.555 45.566C100.329 45.7658 100.066 45.9132 99.7676 46.0083C99.469 46.1034 99.155 46.151 98.8255 46.151ZM98.8255 45.3948C99.016 45.3948 99.2013 45.3639 99.3815 45.302C99.5617 45.2402 99.7212 45.1403 99.8602 45.0024C99.9992 44.8597 100.11 44.6742 100.192 44.4459C100.28 44.2176 100.324 43.9394 100.324 43.6112V43.4685C100.324 43.1546 100.28 42.8906 100.192 42.6766C100.11 42.4578 99.9992 42.2818 99.8602 42.1486C99.7212 42.0107 99.5617 41.9108 99.3815 41.849C99.2013 41.7872 99.016 41.7562 98.8255 41.7562C98.6299 41.7562 98.442 41.7872 98.2618 41.849C98.0816 41.9108 97.922 42.0107 97.7831 42.1486C97.6441 42.2818 97.5334 42.4578 97.451 42.6766C97.3686 42.8906 97.3275 43.1546 97.3275 43.4685V43.6112C97.3275 43.9394 97.3686 44.2176 97.451 44.4459C97.5334 44.6742 97.6441 44.8597 97.7831 45.0024C97.922 45.1403 98.0816 45.2402 98.2618 45.302C98.442 45.3639 98.6299 45.3948 98.8255 45.3948Z" fill="black"/>
<path d="M107.441 45.3306H108.02C108.118 45.1546 108.195 44.9429 108.252 44.6956C108.313 44.4435 108.36 44.1748 108.391 43.8894C108.427 43.604 108.45 43.3115 108.46 43.0119C108.476 42.7122 108.483 42.4245 108.483 42.1486V41.0785H112.143V45.3306H112.769V47H111.92V46.0725H108.29V47H107.441V45.3306ZM111.217 45.3306V41.8205H109.379V42.2913C109.379 42.9762 109.343 43.5636 109.271 44.0535C109.199 44.5434 109.096 44.9691 108.962 45.3306H111.217Z" fill="black"/>
<path d="M119.489 41.0785H120.415V43.1332H123.041V41.0785H123.967V46.0725H123.041V43.8751H120.415V46.0725H119.489V41.0785Z" fill="black"/>
<path d="M134.143 44.9453H131.95L131.494 46.0725H130.568L132.614 41.0785H133.541L135.587 46.0725H134.599L134.143 44.9453ZM132.251 44.2033H133.842L133.054 42.1486L132.251 44.2033Z" fill="black"/>
<path d="M143.16 44.0606C142.758 43.9512 142.457 43.7729 142.256 43.5256C142.056 43.2735 141.955 42.9762 141.955 42.6338C141.955 42.4055 141.999 42.1962 142.086 42.0059C142.174 41.8157 142.303 41.6516 142.473 41.5137C142.642 41.3757 142.853 41.2687 143.106 41.1926C143.363 41.1165 143.662 41.0785 144.001 41.0785H146.048V46.0725H145.121V44.1605H143.986L142.789 46.0725H141.801L143.16 44.0606ZM142.882 42.6338C142.882 42.8906 142.974 43.0904 143.16 43.2331C143.35 43.3757 143.682 43.4471 144.156 43.4471H145.121V41.8205H144.156C143.682 41.8205 143.35 41.8918 143.16 42.0345C142.974 42.1772 142.882 42.3769 142.882 42.6338Z" fill="black"/>
<path d="M160.949 41.0785H165.35V46.0725H164.423V41.8205H161.875V46.0725H160.949V41.0785Z" fill="black"/>
<path d="M172.531 41.0785H174.5C175.226 41.0785 175.762 41.2235 176.107 41.5137C176.452 41.799 176.624 42.1843 176.624 42.6694C176.624 43.1546 176.452 43.5422 176.107 43.8323C175.762 44.1177 175.226 44.2604 174.5 44.2604H173.458V46.0725H172.531V41.0785ZM174.423 43.5184C174.665 43.5184 174.869 43.5018 175.033 43.4685C175.198 43.4304 175.329 43.3781 175.427 43.3115C175.525 43.2402 175.594 43.1522 175.636 43.0476C175.677 42.9382 175.697 42.8121 175.697 42.6694C175.697 42.5268 175.677 42.4031 175.636 42.2985C175.594 42.1938 175.525 42.1058 175.427 42.0345C175.329 41.9631 175.198 41.9108 175.033 41.8775C174.869 41.8395 174.665 41.8205 174.423 41.8205H173.458V43.5184H174.423Z" fill="black"/>
<path d="M185.621 46.151C185.292 46.151 184.978 46.1034 184.679 46.0083C184.381 45.9132 184.118 45.7658 183.891 45.566C183.665 45.3615 183.485 45.0999 183.351 44.7812C183.217 44.4578 183.15 44.0678 183.15 43.6112V43.4685C183.15 43.0309 183.217 42.6576 183.351 42.3484C183.485 42.0345 183.665 41.7776 183.891 41.5779C184.118 41.3781 184.381 41.2331 184.679 41.1427C184.978 41.0476 185.292 41 185.621 41C185.951 41 186.265 41.0476 186.563 41.1427C186.862 41.2331 187.124 41.3781 187.351 41.5779C187.577 41.7776 187.758 42.0345 187.891 42.3484C188.025 42.6576 188.092 43.0309 188.092 43.4685V43.6112C188.092 44.0678 188.025 44.4578 187.891 44.7812C187.758 45.0999 187.577 45.3615 187.351 45.566C187.124 45.7658 186.862 45.9132 186.563 46.0083C186.265 46.1034 185.951 46.151 185.621 46.151ZM185.621 45.3948C185.812 45.3948 185.997 45.3639 186.177 45.302C186.357 45.2402 186.517 45.1403 186.656 45.0024C186.795 44.8597 186.906 44.6742 186.988 44.4459C187.075 44.2176 187.119 43.9394 187.119 43.6112V43.4685C187.119 43.1546 187.075 42.8906 186.988 42.6766C186.906 42.4578 186.795 42.2818 186.656 42.1486C186.517 42.0107 186.357 41.9108 186.177 41.849C185.997 41.7872 185.812 41.7562 185.621 41.7562C185.426 41.7562 185.238 41.7872 185.057 41.849C184.877 41.9108 184.718 42.0107 184.579 42.1486C184.44 42.2818 184.329 42.4578 184.247 42.6766C184.164 42.8906 184.123 43.1546 184.123 43.4685V43.6112C184.123 43.9394 184.164 44.2176 184.247 44.4459C184.329 44.6742 184.44 44.8597 184.579 45.0024C184.718 45.1403 184.877 45.2402 185.057 45.302C185.238 45.3639 185.426 45.3948 185.621 45.3948Z" fill="black"/>
<path d="M195.003 41.0785H198.478V41.8205H195.93V46.0725H195.003V41.0785Z" fill="black"/>
<path d="M205.116 41.0785H207.085C207.811 41.0785 208.346 41.2235 208.691 41.5137C209.036 41.799 209.208 42.1843 209.208 42.6694C209.208 43.1546 209.036 43.5422 208.691 43.8323C208.346 44.1177 207.811 44.2604 207.085 44.2604H206.042V46.0725H205.116V41.0785ZM207.007 43.5184C207.249 43.5184 207.453 43.5018 207.617 43.4685C207.782 43.4304 207.913 43.3781 208.011 43.3115C208.109 43.2402 208.179 43.1522 208.22 43.0476C208.261 42.9382 208.282 42.8121 208.282 42.6694C208.282 42.5268 208.261 42.4031 208.22 42.2985C208.179 42.1938 208.109 42.1058 208.011 42.0345C207.913 41.9631 207.782 41.9108 207.617 41.8775C207.453 41.8395 207.249 41.8205 207.007 41.8205H206.042V43.5184H207.007Z" fill="black"/>
<path d="M218.495 44.9453H216.302L215.847 46.0725H214.92L216.967 41.0785H217.893L219.939 46.0725H218.951L218.495 44.9453ZM216.604 44.2033H218.194L217.407 42.1486L216.604 44.2033Z" fill="black"/>
<path d="M226.539 41.0785H227.497L229.219 44.0392L230.941 41.0785H231.867V46.0725H230.941V42.5767L229.512 45.0381H228.894L227.466 42.5767V46.0725H226.539V41.0785Z" fill="black"/>
<path d="M239.05 41.0785H240.007L241.729 44.0392L243.451 41.0785H244.378V46.0725H243.451V42.5767L242.023 45.0381H241.405L239.976 42.5767V46.0725H239.05V41.0785Z" fill="black"/>
<path d="M254.556 44.9453H252.363L251.907 46.0725H250.981L253.027 41.0785H253.954L256 46.0725H255.012L254.556 44.9453ZM252.664 44.2033H254.255L253.467 42.1486L252.664 44.2033Z" fill="black"/>
</svg>
