<svg width="384" height="388" viewBox="0 0 384 388" fill="none" xmlns="http://www.w3.org/2000/svg">
<path d="M253.304 204.514C239.061 204.514 225.682 210.052 215.642 220.106C205.582 230.16 200.037 243.532 200.037 257.768C200.037 271.991 205.574 285.369 215.642 295.437C225.703 305.49 239.075 311.028 253.304 311.028C267.527 311.028 280.905 305.49 290.966 295.437C301.026 285.368 306.565 271.991 306.565 257.768C306.565 243.538 301.027 230.161 290.973 220.113C280.919 210.052 267.54 204.514 253.304 204.514ZM284.529 288.992C276.185 297.33 265.102 301.921 253.304 301.921C241.513 301.921 230.417 297.33 222.079 288.992C213.735 280.655 209.143 269.566 209.143 257.768C209.143 245.97 213.734 234.88 222.079 226.55C230.417 218.206 241.513 213.615 253.304 213.615C265.102 213.615 276.185 218.206 284.529 226.55C292.866 234.88 297.457 245.97 297.457 257.768C297.458 269.566 292.866 280.655 284.529 288.992Z" fill="url(#paint0_linear_1096_978)"/>
<path d="M376.179 240.316L347.796 236.202C346.018 236.066 344.485 234.949 343.797 233.294L334.601 211.095C333.913 209.446 334.199 207.566 335.364 206.217L352.339 183.405C355.043 180.237 354.866 175.53 351.917 172.588L338.484 159.155C336.938 157.601 334.895 156.819 332.851 156.819C331.012 156.819 329.166 157.452 327.674 158.733L304.855 175.715C303.99 176.457 302.894 176.845 301.79 176.845C301.177 176.845 300.564 176.723 299.985 176.485L277.772 167.275C276.131 166.6 275.006 165.047 274.864 163.283L270.743 134.899C270.423 130.743 266.962 127.542 262.807 127.542H243.802C239.641 127.542 236.18 130.743 235.86 134.899L231.732 163.283C231.596 165.047 230.479 166.6 228.83 167.281L206.617 176.484C206.032 176.722 205.418 176.845 204.806 176.845C203.703 176.845 202.612 176.457 201.741 175.714L178.935 158.739C177.443 157.458 175.598 156.818 173.765 156.818C171.715 156.818 169.672 157.608 168.118 159.161L154.685 172.587C151.743 175.537 151.566 180.236 154.263 183.404L171.238 206.217C172.389 207.565 172.689 209.445 172.008 211.094L162.805 233.3C162.137 234.948 160.584 236.066 158.821 236.202L130.422 240.323C126.282 240.65 123.08 244.11 123.08 248.272V267.263C123.08 271.432 126.282 274.893 130.422 275.218L158.821 279.333C160.585 279.477 162.138 280.6 162.805 282.242L172.008 304.454C172.695 306.089 172.389 307.982 171.238 309.331L154.263 332.144C151.566 335.297 151.743 340.011 154.685 342.954L168.118 356.387C169.672 357.94 171.715 358.723 173.759 358.723C175.598 358.723 177.444 358.089 178.936 356.808L201.742 339.827C202.613 339.084 203.704 338.703 204.807 338.703C205.42 338.703 206.032 338.818 206.618 339.063L228.83 348.268C230.478 348.949 231.602 350.488 231.738 352.266L235.859 380.651C236.179 384.791 239.64 388 243.802 388H262.806C266.968 388 270.421 384.791 270.749 380.651L274.863 352.266C275.006 350.489 276.13 348.95 277.771 348.268L299.984 339.065C300.57 338.819 301.182 338.704 301.796 338.704C302.899 338.704 303.996 339.085 304.861 339.828L327.673 356.81C329.165 358.091 331.011 358.724 332.851 358.724C334.894 358.724 336.938 357.941 338.484 356.389L351.916 342.956C354.872 340.013 355.042 335.299 352.338 332.145L335.363 309.333C334.219 307.984 333.912 306.09 334.6 304.456L343.796 282.243C344.485 280.601 346.017 279.477 347.795 279.335L376.179 275.22C380.327 274.893 383.529 271.433 383.529 267.278V248.274C383.529 244.11 380.328 240.65 376.179 240.316ZM374.422 266.268L346.706 270.287C341.672 270.825 337.367 274.034 335.385 278.761L326.196 300.939C324.227 305.653 324.997 310.98 328.191 314.944L344.771 337.226L332.755 349.241L310.482 332.661C308.029 330.679 304.957 329.589 301.796 329.589C299.95 329.589 298.153 329.957 296.504 330.652L274.27 339.861C269.563 341.823 266.356 346.134 265.817 351.175L261.799 378.891H244.81L240.785 351.182C240.254 346.141 237.052 341.823 232.318 339.847L210.132 330.665C208.436 329.949 206.645 329.588 204.806 329.588C201.659 329.588 198.594 330.678 196.134 332.653L173.846 349.239L161.837 337.224L178.411 314.943C181.612 310.978 182.382 305.645 180.42 300.964L171.238 278.8C169.303 274.059 164.985 270.83 159.916 270.285L132.186 266.266V249.263L159.903 245.245C164.991 244.713 169.317 241.471 171.217 236.784L180.406 214.606C182.381 209.892 181.612 204.558 178.411 200.601L161.831 178.313L173.853 166.297L196.12 182.877C198.579 184.865 201.645 185.949 204.805 185.949C206.631 185.949 208.415 185.594 210.104 184.893L232.31 175.69C237.031 173.742 240.253 169.417 240.777 164.363L244.81 136.652H261.798L265.816 164.376C266.362 169.43 269.584 173.75 274.283 175.684L296.496 184.893C298.178 185.587 299.963 185.949 301.789 185.949C304.956 185.949 308.029 184.859 310.481 182.877L332.754 166.297L344.77 178.313L328.205 200.574C324.989 204.525 324.212 209.865 326.188 214.571L335.384 236.784C337.345 241.498 341.665 244.713 346.712 245.245L374.421 249.263L374.422 266.268Z" fill="url(#paint1_linear_1096_978)"/>
<path d="M127.329 197.348L141.32 192.239C144.393 191.122 146.075 187.831 145.203 184.691L140.606 162.677C140.238 161.314 140.653 159.883 141.675 158.944L155.564 146.193C156.252 145.559 157.151 145.226 158.058 145.226C158.5 145.226 158.943 145.301 159.358 145.45L180.727 151.833C181.456 152.105 182.204 152.235 182.94 152.228C185.297 152.221 187.539 150.865 188.587 148.618L194.861 135.11C196.257 132.147 195.112 128.626 192.272 127.025L173.642 114.79C172.429 114.103 171.7 112.802 171.769 111.399L172.573 92.5646C172.634 91.168 173.472 89.9418 174.726 89.3568L194.533 78.6898C197.51 77.3409 198.934 73.9217 197.816 70.8631L192.715 56.8656C191.795 54.3375 189.397 52.7507 186.822 52.7582C186.27 52.7651 185.712 52.8325 185.16 52.9901L163.144 57.5741C162.817 57.6696 162.483 57.7174 162.157 57.7174C161.135 57.7242 160.14 57.2884 159.418 56.5124L146.68 42.6293C145.726 41.6017 145.433 40.1361 145.93 38.8357L152.306 17.4601C153.444 14.4023 152.055 10.9959 149.084 9.61294L135.577 3.32613C134.718 2.93055 133.812 2.74034 132.92 2.74034C130.734 2.75322 128.635 3.91192 127.499 5.9277L115.258 24.5646C114.597 25.7225 113.371 26.4371 112.042 26.444H111.879L93.0379 25.627C91.6481 25.5588 90.3947 24.7214 89.8233 23.4612L79.1639 3.66487C78.1219 1.36264 75.8394 -0.0127931 73.4485 8.97055e-05C72.7468 8.97055e-05 72.0321 0.122855 71.3372 0.374449L57.3457 5.48968C54.2736 6.60746 52.5844 9.8903 53.4703 13.0307L58.0611 35.0527C58.4355 36.3948 58.0202 37.8316 56.9918 38.772L43.1026 51.5238C42.4017 52.1641 41.5158 52.4983 40.6026 52.5051C40.1669 52.5051 39.7243 52.4233 39.2946 52.2596L17.9334 45.8978C17.2052 45.6181 16.4557 45.4893 15.7199 45.4893C13.3699 45.5022 11.1351 46.8518 10.0802 49.0995L3.80628 62.6136C2.41646 65.5698 3.55393 69.0845 6.39497 70.6987L25.025 82.9396C26.2444 83.6209 26.9665 84.9221 26.8976 86.3051L26.0943 105.153C26.0397 106.542 25.188 107.775 23.9345 108.361L4.12684 119.028C1.15697 120.376 -0.266957 123.79 0.850058 126.848L5.95241 140.846C6.87846 143.373 9.27618 144.973 11.8512 144.967C12.3961 144.96 12.9478 144.878 13.4995 144.722L35.5283 140.131C35.8489 140.042 36.1755 139.995 36.496 139.995C37.5244 139.995 38.5255 140.417 39.2408 141.193L51.9857 155.089C52.9391 156.111 53.2179 157.583 52.7352 158.891L46.359 180.252C45.2223 183.31 46.6181 186.723 49.5812 188.113L63.0816 194.393C63.9463 194.788 64.8526 194.978 65.7446 194.978C67.9316 194.965 70.0292 193.814 71.1599 191.798L83.4008 173.168C84.0541 172.01 85.2673 171.287 86.5814 171.287H86.786L105.621 172.098C107.017 172.152 108.263 172.99 108.843 174.257L119.503 194.065C120.552 196.354 122.827 197.73 125.225 197.723C125.919 197.716 126.634 197.6 127.329 197.348ZM116.961 170.122C114.884 165.906 110.715 163.187 106.008 163.003L87.2422 162.2C87.0103 162.186 86.7792 162.173 86.5473 162.173C82.1262 162.2 77.9848 164.543 75.6818 168.317L64.6753 185.081L55.6702 180.891L61.4061 161.703C62.9111 157.242 61.882 152.371 58.7015 148.938L45.9778 135.063C43.5452 132.392 40.079 130.874 36.4612 130.893C35.4533 130.893 34.4446 131.016 33.4709 131.262L13.6556 135.389L10.2628 126.071L28.0821 116.48C32.2985 114.375 35.0168 110.199 35.1873 105.534L35.9982 86.7408C36.2225 82.0272 33.8725 77.6403 29.847 75.2016L13.1039 64.2073L17.2863 55.2022L36.5021 60.9373C37.8374 61.3874 39.2264 61.6049 40.6436 61.6049C43.8309 61.5913 46.8766 60.4068 49.2606 58.2266L63.1089 45.5158C66.6168 42.3285 68.0612 37.5603 66.9237 32.9824L62.8027 13.1875L72.1208 9.78193L81.7041 27.6004C83.7888 31.804 87.9439 34.5215 92.6515 34.7185L111.513 35.5362L112.078 35.5498C116.533 35.5294 120.681 33.1726 122.984 29.3918L133.992 12.6283L142.997 16.8167L137.268 35.9924C135.742 40.4605 136.764 45.3241 139.965 48.7706L152.71 62.6598C155.141 65.3228 158.602 66.8354 162.191 66.8149C163.214 66.8081 164.222 66.6861 165.216 66.4542L185.011 62.3196L188.403 71.6444L170.576 81.2489C166.415 83.3201 163.703 87.4479 163.471 92.1751L162.66 110.954C162.435 115.676 164.786 120.062 168.818 122.514L185.555 133.515L181.372 142.526L162.163 136.784C160.828 136.334 159.439 136.11 158.015 136.117C154.806 136.123 151.741 137.336 149.405 139.482L135.502 152.24C132.049 155.427 130.625 160.183 131.736 164.733L135.87 184.54L126.545 187.933L116.961 170.122Z" fill="url(#paint2_linear_1096_978)"/>
<path d="M138.983 117.311C143.908 106.711 144.419 94.8319 140.414 83.8648C136.402 72.8917 128.372 64.1314 117.799 59.22C111.895 56.4616 105.627 55.0786 99.1761 55.1059C94.1359 55.1263 89.1495 56.0251 84.3541 57.7764C73.3673 61.7814 64.6078 69.8127 59.6827 80.4047C54.7577 90.9837 54.247 102.856 58.2452 113.85C62.2646 124.831 70.3027 133.59 80.8742 138.502C86.773 141.246 93.0394 142.635 99.4899 142.609C104.538 142.582 109.524 141.683 114.326 139.938C125.286 135.934 134.039 127.896 138.983 117.311ZM111.199 131.383C107.378 132.78 103.407 133.482 99.449 133.495C94.4216 133.523 89.4079 132.432 84.7156 130.246C76.3304 126.343 69.9822 119.408 66.8009 110.723C63.6408 102.025 64.0349 92.6252 67.9384 84.246C71.8419 75.854 78.7826 69.4922 87.4672 66.3321C91.2949 64.9286 95.2666 64.2269 99.2178 64.2133C104.245 64.192 109.251 65.2825 113.944 67.4696C122.323 71.3723 128.685 78.307 131.859 86.9916C135.027 95.6837 134.624 105.077 130.728 113.469C126.811 121.854 119.884 128.21 111.199 131.383Z" fill="url(#paint3_linear_1096_978)"/>
<defs>
<linearGradient id="paint0_linear_1096_978" x1="200.041" y1="257.771" x2="306.565" y2="257.771" gradientUnits="userSpaceOnUse">
<stop stop-color="#68BDEB"/>
<stop offset="0.19" stop-color="#61B3E4"/>
<stop offset="0.52" stop-color="#519AD3"/>
<stop offset="0.93" stop-color="#3771B7"/>
<stop offset="1" stop-color="#3269B2"/>
</linearGradient>
<linearGradient id="paint1_linear_1096_978" x1="123.09" y1="257.771" x2="383.529" y2="257.771" gradientUnits="userSpaceOnUse">
<stop stop-color="#68BDEB"/>
<stop offset="0.19" stop-color="#61B3E4"/>
<stop offset="0.52" stop-color="#519AD3"/>
<stop offset="0.93" stop-color="#3771B7"/>
<stop offset="1" stop-color="#3269B2"/>
</linearGradient>
<linearGradient id="paint2_linear_1096_978" x1="0.478118" y1="98.8616" x2="198.196" y2="98.8616" gradientUnits="userSpaceOnUse">
<stop stop-color="#68BDEB"/>
<stop offset="0.19" stop-color="#61B3E4"/>
<stop offset="0.52" stop-color="#519AD3"/>
<stop offset="0.93" stop-color="#3771B7"/>
<stop offset="1" stop-color="#3269B2"/>
</linearGradient>
<linearGradient id="paint3_linear_1096_978" x1="55.5813" y1="98.8574" x2="143.087" y2="98.8574" gradientUnits="userSpaceOnUse">
<stop stop-color="#68BDEB"/>
<stop offset="0.19" stop-color="#61B3E4"/>
<stop offset="0.52" stop-color="#519AD3"/>
<stop offset="0.93" stop-color="#3771B7"/>
<stop offset="1" stop-color="#3269B2"/>
</linearGradient>
</defs>
</svg>
