<svg width="26" height="12" viewBox="0 0 26 12" fill="none" xmlns="http://www.w3.org/2000/svg">
<g id="Group">
<g id="Group_2">
<path id="Vector" d="M20.2316 0.230835C17.6516 0.230835 15.463 1.93345 14.7275 4.27292C14.0988 3.9492 13.4481 3.80242 12.7745 3.83993C12.1972 3.87092 11.6908 4.03726 11.266 4.24928C10.5231 1.92122 8.33941 0.230835 5.76917 0.230835C2.58899 0.230835 0 2.8182 0 5.99919C0 9.181 2.58818 11.7692 5.76917 11.7692C8.81317 11.7692 11.3141 9.3979 11.5228 6.40527C11.7862 6.16635 12.2861 5.79859 12.8936 5.77005C13.4114 5.73173 13.9373 5.96576 14.478 6.43545C14.7014 9.41177 17.1958 11.7692 20.2316 11.7692C23.411 11.7692 26 9.181 26 5.99919C26 2.8182 23.4118 0.230835 20.2316 0.230835ZM5.76999 9.83334C3.65639 9.83334 1.93502 8.11523 1.93502 6.00001C1.93502 3.8856 3.65558 2.16585 5.76999 2.16585C7.88358 2.16585 9.60496 3.88478 9.60496 6.00001C9.60496 8.11442 7.88358 9.83334 5.76999 9.83334ZM20.2316 9.83334C18.118 9.83334 16.3983 8.11523 16.3983 6.00001C16.3983 3.8856 18.118 2.16585 20.2316 2.16585C22.3477 2.16585 24.0666 3.88478 24.0666 6.00001C24.0666 8.11442 22.3469 9.83334 20.2316 9.83334Z" fill="black"/>
</g>
</g>
</svg>
