<svg width="27" height="21" viewBox="0 0 27 21" fill="none" xmlns="http://www.w3.org/2000/svg">
<g id="menu" clip-path="url(#clip0_987_1369)">
<path id="Vector" d="M20.8986 1.02275L4.02278 17.8986C3.45791 18.4635 3.45226 19.3736 4.01015 19.9315C4.56804 20.4894 5.47822 20.4838 6.04308 19.9189L22.9189 3.04305C23.4838 2.47818 23.4895 1.56801 22.9316 1.01012C22.3737 0.452227 21.4635 0.457879 20.8986 1.02275Z" fill="black"/>
<path id="Vector_2" d="M22.8276 17.9278L5.95173 1.05195C5.38687 0.487089 4.47669 0.481435 3.9188 1.03933C3.36091 1.59722 3.36656 2.50739 3.93143 3.07226L20.8073 19.9481C21.3722 20.513 22.2823 20.5186 22.8402 19.9607C23.3981 19.4029 23.3925 18.4927 22.8276 17.9278Z" fill="black"/>
</g>
<defs>
<clipPath id="clip0_987_1369">
<rect width="27" height="20" fill="white" transform="translate(0 0.5)"/>
</clipPath>
</defs>
</svg>
