<svg width="27" height="21" viewBox="0 0 27 21" fill="none" xmlns="http://www.w3.org/2000/svg">
<g id="menu" clip-path="url(#clip0_967_389)">
<path id="Vector" d="M25.3125 0.5H1.44643C0.647588 0.5 0 1.13959 0 1.92857C0 2.71755 0.647588 3.35714 1.44643 3.35714H25.3125C26.1113 3.35714 26.7589 2.71755 26.7589 1.92857C26.7589 1.13959 26.1113 0.5 25.3125 0.5Z" fill="black"/>
<path id="Vector_2" d="M25.3125 9.07141H1.44643C0.647588 9.07141 0 9.711 0 10.5C0 11.289 0.647588 11.9286 1.44643 11.9286H25.3125C26.1113 11.9286 26.7589 11.289 26.7589 10.5C26.7589 9.711 26.1113 9.07141 25.3125 9.07141Z" fill="black"/>
<path id="Vector_3" d="M25.3125 17.6428H1.44643C0.647588 17.6428 0 18.2824 0 19.0714C0 19.8604 0.647588 20.5 1.44643 20.5H25.3125C26.1113 20.5 26.7589 19.8604 26.7589 19.0714C26.7589 18.2824 26.1113 17.6428 25.3125 17.6428Z" fill="black"/>
</g>
<defs>
<clipPath id="clip0_967_389">
<rect width="27" height="20" fill="white" transform="translate(0 0.5)"/>
</clipPath>
</defs>
</svg>
