<svg width="28" height="23" viewBox="0 0 28 23" fill="none" xmlns="http://www.w3.org/2000/svg">
<g id="Group">
<g id="Vector">
<mask id="path-1-inside-1_721_1361" fill="white">
<path d="M0.617421 11.3347L7.05785 13.4857L22.3482 4.29298C22.5698 4.15967 22.7969 4.45571 22.6058 4.62875L11.0298 15.1071L10.5994 20.9733C10.5666 21.4196 11.1132 21.668 11.4376 21.3543L15.0018 17.9077L21.5175 22.7583C22.2198 23.2812 23.2368 22.9126 23.4263 22.0666L27.9632 1.80841C28.222 0.652734 27.0705 -0.322454 25.9467 0.100766L0.584651 9.65144C-0.210949 9.95107 -0.189279 11.0653 0.617421 11.3347Z"/>
</mask>
<path d="M0.617421 11.3347L7.05785 13.4857L22.3482 4.29298C22.5698 4.15967 22.7969 4.45571 22.6058 4.62875L11.0298 15.1071L10.5994 20.9733C10.5666 21.4196 11.1132 21.668 11.4376 21.3543L15.0018 17.9077L21.5175 22.7583C22.2198 23.2812 23.2368 22.9126 23.4263 22.0666L27.9632 1.80841C28.222 0.652734 27.0705 -0.322454 25.9467 0.100766L0.584651 9.65144C-0.210949 9.95107 -0.189279 11.0653 0.617421 11.3347Z" fill="url(#paint0_linear_721_1361)"/>
<path d="M0.617421 11.3347L5.68602 -3.84129L5.68528 -3.84154L0.617421 11.3347ZM7.05785 13.4857L1.98925 28.6616L8.9828 30.9974L15.302 27.1982L7.05785 13.4857ZM22.3482 4.29298L30.5923 18.0055L30.5955 18.0036L22.3482 4.29298ZM22.6058 4.62875L33.3431 16.4908L33.3433 16.4907L22.6058 4.62875ZM11.0298 15.1071L0.292482 3.24498L-4.45828 7.54529L-4.92725 13.9361L11.0298 15.1071ZM10.5994 20.9733L26.5564 22.1454L26.5565 22.1443L10.5994 20.9733ZM11.4376 21.3543L22.5595 32.8567L22.5601 32.8561L11.4376 21.3543ZM15.0018 17.9077L24.5562 5.07355L13.6518 -3.04424L3.87936 6.4059L15.0018 17.9077ZM21.5175 22.7583L31.0727 9.92476L31.0719 9.92415L21.5175 22.7583ZM23.4263 22.0666L7.81302 18.57L7.81295 18.5703L23.4263 22.0666ZM27.9632 1.80841L43.5764 5.30507L43.5765 5.3047L27.9632 1.80841ZM25.9467 0.100766L31.5853 15.0743L31.5857 15.0741L25.9467 0.100766ZM0.584651 9.65144L-5.05397 -5.32207L-5.05452 -5.32186L0.584651 9.65144ZM-4.45118 26.5106L1.98925 28.6616L12.1264 -1.69026L5.68602 -3.84129L-4.45118 26.5106ZM15.302 27.1982L30.5923 18.0055L14.1041 -9.41958L-1.18628 -0.226879L15.302 27.1982ZM30.5955 18.0036C22.6567 22.779 14.0277 19.4171 9.93696 14.0847C5.79224 8.68184 4.78413 -0.820558 11.8682 -7.23315L33.3433 16.4907C40.6185 9.90502 39.5925 0.16808 35.3266 -5.3927C31.1147 -10.8831 22.2613 -14.3264 14.1008 -9.41764L30.5955 18.0036ZM11.8684 -7.23334L0.292482 3.24498L21.7672 26.9692L33.3431 16.4908L11.8684 -7.23334ZM-4.92725 13.9361L-5.35773 19.8023L26.5565 22.1443L26.9869 16.278L-4.92725 13.9361ZM-5.35765 19.8012C-6.51574 35.5676 12.1526 42.9193 22.5595 32.8567L0.315763 9.85198C10.0738 0.41675 27.6489 7.27153 26.5564 22.1454L-5.35765 19.8012ZM22.5601 32.8561L26.1243 29.4094L3.87936 6.4059L0.315145 9.85257L22.5601 32.8561ZM5.44748 30.7418L11.9632 35.5924L31.0719 9.92415L24.5562 5.07355L5.44748 30.7418ZM11.9624 35.5918C21.7205 42.8572 36.2528 38.0075 39.0396 25.5629L7.81295 18.5703C10.2208 7.81773 22.7192 3.70518 31.0727 9.92476L11.9624 35.5918ZM39.0395 25.5633L43.5764 5.30507L12.3499 -1.68825L7.81302 18.57L39.0395 25.5633ZM43.5765 5.3047C46.7409 -8.82641 32.8004 -19.5774 20.3077 -14.8726L31.5857 15.0741C21.3405 18.9325 9.70306 10.1319 12.3499 -1.68788L43.5765 5.3047ZM20.3081 -14.8727L-5.05397 -5.32207L6.22327 24.6249L31.5853 15.0743L20.3081 -14.8727ZM-5.05452 -5.32186C-19.9766 0.298022 -19.5132 21.4809 -4.45044 26.5108L5.68528 -3.84154C19.1346 0.649675 19.5547 19.6041 6.22383 24.6247L-5.05452 -5.32186Z" fill="#D41216" mask="url(#path-1-inside-1_721_1361)"/>
</g>
</g>
<defs>
<linearGradient id="paint0_linear_721_1361" x1="0.00108464" y1="11.5" x2="28" y2="11.5" gradientUnits="userSpaceOnUse">
<stop stop-color="#68BDEB"/>
<stop offset="0.19" stop-color="#61B3E4"/>
<stop offset="0.52" stop-color="#519AD3"/>
<stop offset="0.93" stop-color="#3771B7"/>
<stop offset="1" stop-color="#3269B2"/>
</linearGradient>
</defs>
</svg>
