<svg width="40" height="23" viewBox="0 0 40 23" fill="none" xmlns="http://www.w3.org/2000/svg">
<g id="Group">
<path id="Vector" d="M39.7878 20.6997C39.7394 20.5953 39.6942 20.5087 39.6523 20.4394C38.9583 19.1895 37.6321 17.6553 35.6745 15.8364L35.6331 15.7947L35.6124 15.7743L35.5914 15.7534H35.5704C34.682 14.9064 34.1193 14.3369 33.8837 14.0454C33.4526 13.49 33.356 12.9278 33.5917 12.3581C33.7581 11.9278 34.3834 11.0189 35.4661 9.63022C36.0355 8.89428 36.4866 8.30445 36.8196 7.86007C39.2218 4.66653 40.2632 2.62582 39.9437 1.73713L39.8196 1.52946C39.7363 1.40443 39.5211 1.29005 39.1744 1.18574C38.8269 1.08165 38.3827 1.06443 37.8411 1.1338L31.8432 1.17524C31.7461 1.14081 31.6073 1.14401 31.4266 1.18574C31.246 1.22746 31.1557 1.2484 31.1557 1.2484L31.0513 1.30056L30.9685 1.36321C30.899 1.40465 30.8227 1.47752 30.7393 1.58169C30.6563 1.68549 30.587 1.8073 30.5315 1.94612C29.8785 3.62612 29.1361 5.18809 28.3028 6.63196C27.7891 7.49293 27.3173 8.23909 26.8864 8.87086C26.4561 9.50242 26.0951 9.96774 25.8038 10.266C25.512 10.5646 25.2486 10.8038 25.0122 10.9844C24.776 11.1652 24.5958 11.2416 24.471 11.2136C24.3459 11.1857 24.2281 11.158 24.1165 11.1303C23.9223 11.0052 23.766 10.8352 23.6482 10.62C23.5299 10.4048 23.4503 10.134 23.4086 9.8077C23.3672 9.4812 23.3427 9.20036 23.3357 8.96424C23.3292 8.7284 23.3322 8.39483 23.3462 7.96445C23.3607 7.53386 23.3672 7.24251 23.3672 7.08977C23.3672 6.56208 23.3775 5.98939 23.3981 5.37155C23.4191 4.7537 23.4361 4.26417 23.4503 3.90353C23.4645 3.54252 23.471 3.16058 23.471 2.75792C23.471 2.35527 23.4465 2.03949 23.3981 1.81029C23.3502 1.58139 23.2768 1.3592 23.18 1.1438C23.0826 0.928608 22.9401 0.762148 22.753 0.643977C22.5656 0.525952 22.3327 0.43229 22.0554 0.362701C21.3195 0.196167 20.3823 0.10608 19.2436 0.0920746C16.6613 0.0643555 15.002 0.231108 14.2661 0.592113C13.9745 0.744641 13.7107 0.953044 13.4748 1.21667C13.2248 1.52223 13.1899 1.68899 13.3704 1.71642C14.2036 1.84122 14.7934 2.13979 15.1406 2.61182L15.2657 2.86194C15.363 3.04241 15.4601 3.36191 15.5574 3.82C15.6545 4.2781 15.7171 4.78485 15.7447 5.33996C15.814 6.35368 15.814 7.22143 15.7447 7.9433C15.6752 8.66545 15.6095 9.22764 15.5469 9.6303C15.4842 10.033 15.3906 10.3592 15.2657 10.6091C15.1406 10.859 15.0573 11.0117 15.0156 11.0672C14.974 11.1226 14.9392 11.1575 14.9117 11.1713C14.7312 11.2404 14.5435 11.2756 14.3493 11.2756C14.1547 11.2756 13.9188 11.1783 13.6412 10.9839C13.3636 10.7894 13.0756 10.5223 12.777 10.1821C12.4784 9.84176 12.1417 9.36624 11.7667 8.75539C11.392 8.14455 11.0032 7.42262 10.6005 6.58958L10.2674 5.98545C10.0591 5.5968 9.77466 5.03089 9.41366 4.28824C9.05243 3.54529 8.73315 2.82664 8.4556 2.13242C8.34465 1.84086 8.17797 1.61889 7.95585 1.46614L7.85161 1.40348C7.78231 1.34804 7.67107 1.28918 7.51847 1.22644C7.36565 1.16378 7.20619 1.11885 7.03944 1.0912L1.33302 1.13264C0.749899 1.13264 0.354245 1.26474 0.145914 1.52858L0.0625377 1.65339C0.0208861 1.72291 -0.00012207 1.83393 -0.00012207 1.98675C-0.00012207 2.1395 0.0415296 2.32697 0.124906 2.54894C0.957938 4.50678 1.86384 6.39496 2.84262 8.21378C3.8214 10.0326 4.67194 11.4977 5.39373 12.6078C6.11566 13.7186 6.85153 14.7671 7.60134 15.7526C8.35114 16.7384 8.84746 17.3702 9.09029 17.6478C9.33342 17.9258 9.52439 18.1337 9.6632 18.2725L10.184 18.7723C10.5172 19.1056 11.0065 19.5047 11.6521 19.9697C12.2979 20.4351 13.0128 20.8932 13.7973 21.3448C14.5819 21.7956 15.4946 22.1636 16.5361 22.4481C17.5774 22.733 18.5909 22.8473 19.5767 22.7921H21.9718C22.4575 22.7502 22.8256 22.5974 23.0757 22.3338L23.1585 22.2294C23.2143 22.1466 23.2664 22.0178 23.3146 21.8446C23.3633 21.671 23.3875 21.4799 23.3875 21.2719C23.3733 20.675 23.4187 20.137 23.5226 19.6581C23.6264 19.1792 23.7447 18.8182 23.8771 18.5751C24.0093 18.3322 24.1586 18.1272 24.3246 17.9611C24.4911 17.7945 24.6097 17.6936 24.6793 17.6589C24.7485 17.624 24.8037 17.6003 24.8453 17.586C25.1785 17.475 25.5707 17.5825 26.0224 17.9091C26.4737 18.2354 26.897 18.6383 27.2929 19.1171C27.6887 19.5963 28.1641 20.134 28.7194 20.7309C29.275 21.3281 29.7608 21.7719 30.1772 22.0639L30.5935 22.3138C30.8716 22.4806 31.2326 22.6333 31.677 22.7722C32.1206 22.9109 32.5092 22.9456 32.8429 22.8762L38.1743 22.7931C38.7016 22.7931 39.1119 22.7058 39.403 22.5325C39.6946 22.359 39.8679 22.1678 39.9237 21.9598C39.9795 21.7516 39.9824 21.5155 39.9343 21.2514C39.8849 20.988 39.8363 20.8038 39.7878 20.6997Z" fill="#D41216"/>
</g>
</svg>
