<svg width="154" height="24" viewBox="0 0 154 24" fill="none" xmlns="http://www.w3.org/2000/svg">
<path d="M8.25 18.825C7.05 18.825 5.95 18.6667 4.95 18.35C3.95 18.0167 3.09167 17.4917 2.375 16.775C1.675 16.0583 1.125 15.1333 0.725 14C0.325 12.8667 0.125 11.4833 0.125 9.85V9.375C0.125 7.84167 0.333333 6.525 0.75 5.425C1.16667 4.325 1.74167 3.425 2.475 2.725C3.20833 2.025 4.06667 1.50833 5.05 1.175C6.05 0.841666 7.11667 0.674999 8.25 0.674999C9.26667 0.674999 10.2167 0.791665 11.1 1.025C12 1.25833 12.7833 1.625 13.45 2.125C14.1333 2.625 14.6833 3.275 15.1 4.075C15.5333 4.875 15.7917 5.85 15.875 7H11.225C11.1417 6.53333 11.0083 6.14167 10.825 5.825C10.6417 5.49167 10.4167 5.225 10.15 5.025C9.88333 4.80833 9.58333 4.65833 9.25 4.575C8.93333 4.475 8.6 4.425 8.25 4.425C7.75 4.425 7.28333 4.51667 6.85 4.7C6.43333 4.86667 6.06667 5.15 5.75 5.55C5.45 5.93333 5.20833 6.44167 5.025 7.075C4.85833 7.70833 4.775 8.475 4.775 9.375V9.9C4.775 10.8667 4.86667 11.6833 5.05 12.35C5.25 13 5.50833 13.5333 5.825 13.95C6.14167 14.35 6.50833 14.6417 6.925 14.825C7.34167 14.9917 7.78333 15.075 8.25 15.075C9.1 15.075 9.775 14.875 10.275 14.475C10.7917 14.0583 11.1083 13.4 11.225 12.5H15.875C15.8083 13.6667 15.5667 14.65 15.15 15.45C14.75 16.25 14.2083 16.9 13.525 17.4C12.8583 17.9 12.075 18.2667 11.175 18.5C10.275 18.7167 9.3 18.825 8.25 18.825ZM24.374 18.825C23.4074 18.825 22.499 18.6917 21.649 18.425C20.8157 18.1417 20.0907 17.7167 19.474 17.15C18.8574 16.5833 18.374 15.875 18.024 15.025C17.674 14.1583 17.499 13.15 17.499 12V11.5C17.499 10.4 17.6657 9.44167 17.999 8.625C18.349 7.80833 18.8157 7.125 19.399 6.575C19.999 6.025 20.699 5.61667 21.499 5.35C22.3157 5.06667 23.1907 4.925 24.124 4.925C26.3074 4.925 27.9574 5.49167 29.074 6.625C30.1907 7.74167 30.749 9.36667 30.749 11.5V12.875H21.449C21.4657 13.3917 21.5574 13.8333 21.724 14.2C21.8907 14.55 22.1074 14.8417 22.374 15.075C22.6407 15.3083 22.9407 15.4833 23.274 15.6C23.624 15.7 23.9907 15.75 24.374 15.75C25.1074 15.75 25.6824 15.6417 26.099 15.425C26.5324 15.1917 26.8157 14.8833 26.949 14.5H30.499C30.2324 15.95 29.574 17.0333 28.524 17.75C27.474 18.4667 26.0907 18.825 24.374 18.825ZM24.249 7.975C23.899 7.975 23.5574 8.01667 23.224 8.1C22.9074 8.18333 22.6157 8.325 22.349 8.525C22.099 8.70833 21.8907 8.95 21.724 9.25C21.574 9.55 21.4907 9.91667 21.474 10.35H26.974C26.974 9.88333 26.899 9.5 26.749 9.2C26.599 8.9 26.399 8.65833 26.149 8.475C25.9157 8.29167 25.6324 8.16667 25.299 8.1C24.9657 8.01667 24.6157 7.975 24.249 7.975ZM32.7451 5.25H37.4201L40.5701 11.825L43.7201 5.25H48.2451V18.5H44.5951V10.375L41.7451 16H39.2451L36.3951 10.375V18.5H32.7451V5.25ZM50.9883 5.25H54.8383V9.55H57.4883C59.2216 9.55 60.5299 9.91667 61.4133 10.65C62.2966 11.3833 62.7383 12.5083 62.7383 14.025C62.7383 14.6917 62.6383 15.3 62.4383 15.85C62.2549 16.4 61.9466 16.875 61.5133 17.275C61.0966 17.6583 60.5549 17.9583 59.8883 18.175C59.2383 18.3917 58.4383 18.5 57.4883 18.5H50.9883V5.25ZM56.9883 15.6C57.6716 15.6 58.1549 15.475 58.4383 15.225C58.7383 14.9583 58.8883 14.5583 58.8883 14.025C58.8883 13.475 58.7383 13.075 58.4383 12.825C58.1549 12.575 57.6716 12.45 56.9883 12.45H54.8383V15.6H56.9883ZM67.2334 13.6C66.2334 13.2667 65.5001 12.775 65.0334 12.125C64.5834 11.4583 64.3584 10.6917 64.3584 9.825C64.3584 9.175 64.4667 8.575 64.6834 8.025C64.9167 7.45833 65.2667 6.975 65.7334 6.575C66.2001 6.15833 66.7917 5.83333 67.5084 5.6C68.2417 5.36667 69.1084 5.25 70.1084 5.25H76.6084V18.5H72.7584V14.025H70.8584L68.0584 18.5H63.8584L67.2334 13.6ZM68.2084 9.825C68.2084 10.2917 68.3751 10.6333 68.7084 10.85C69.0584 11.0667 69.4834 11.175 69.9834 11.175H72.7584V8.4H69.9834C69.4834 8.4 69.0584 8.51667 68.7084 8.75C68.3751 8.98333 68.2084 9.34167 68.2084 9.825ZM85.3574 5.25H89.1074V13.25L94.7324 5.25H98.1074V18.5H94.3574V10.5L88.7324 18.5H85.3574V5.25ZM106.866 5.25H111.541L114.691 11.825L117.841 5.25H122.366V18.5H118.716V10.375L115.866 16H113.366L110.516 10.375V18.5H106.866V5.25ZM124.859 5.25H128.609V13.25L134.234 5.25H137.609V18.5H133.859V10.5L128.234 18.5H124.859V5.25ZM140.118 5.25H143.668V7.05C143.835 6.78333 144.043 6.525 144.293 6.275C144.56 6.00833 144.868 5.775 145.218 5.575C145.568 5.375 145.96 5.21667 146.393 5.1C146.826 4.98333 147.293 4.925 147.793 4.925C149.66 4.925 151.076 5.475 152.043 6.575C153.01 7.675 153.493 9.31667 153.493 11.5V12C153.493 13.1333 153.36 14.125 153.093 14.975C152.826 15.825 152.443 16.5333 151.943 17.1C151.443 17.6667 150.843 18.1 150.143 18.4C149.443 18.6833 148.66 18.825 147.793 18.825C147.043 18.825 146.326 18.6583 145.643 18.325C144.976 17.975 144.418 17.475 143.968 16.825V23.5H140.118V5.25ZM146.868 15.65C147.635 15.65 148.268 15.3417 148.768 14.725C149.285 14.1083 149.543 13.2 149.543 12V11.5C149.543 10.35 149.293 9.5 148.793 8.95C148.31 8.38333 147.668 8.1 146.868 8.1C146.051 8.1 145.36 8.35833 144.793 8.875C144.243 9.375 143.968 10.125 143.968 11.125V12.375C143.968 13.425 144.243 14.2333 144.793 14.8C145.36 15.3667 146.051 15.65 146.868 15.65Z" fill="#D41216"/>
</svg>
