<svg width="26" height="13" viewBox="0 0 26 13" fill="none" xmlns="http://www.w3.org/2000/svg">
<path d="M20.2316 0.730835C17.6516 0.730835 15.463 2.43345 14.7275 4.77292C14.0988 4.4492 13.4481 4.30242 12.7745 4.33993C12.1972 4.37092 11.6908 4.53726 11.266 4.74928C10.5231 2.42122 8.33941 0.730835 5.76917 0.730835C2.58899 0.730835 0 3.3182 0 6.49919C0 9.681 2.58818 12.2692 5.76917 12.2692C8.81317 12.2692 11.3141 9.8979 11.5228 6.90527C11.7862 6.66635 12.2861 6.29859 12.8936 6.27005C13.4114 6.23173 13.9373 6.46576 14.478 6.93545C14.7014 9.91177 17.1958 12.2692 20.2316 12.2692C23.411 12.2692 26 9.681 26 6.49919C26 3.3182 23.4118 0.730835 20.2316 0.730835ZM5.76999 10.3333C3.65639 10.3333 1.93502 8.61523 1.93502 6.50001C1.93502 4.3856 3.65558 2.66585 5.76999 2.66585C7.88358 2.66585 9.60496 4.38478 9.60496 6.50001C9.60496 8.61442 7.88358 10.3333 5.76999 10.3333ZM20.2316 10.3333C18.118 10.3333 16.3983 8.61523 16.3983 6.50001C16.3983 4.3856 18.118 2.66585 20.2316 2.66585C22.3477 2.66585 24.0666 4.38478 24.0666 6.50001C24.0666 8.61442 22.3469 10.3333 20.2316 10.3333Z" fill="black"/>
</svg>
